<?xml version="1.0" standalone="no"?>
<svg xmlns:xlink="http://www.w3.org/1999/xlink" id="wave" style="transform:rotate(0deg); transition: 0.3s" viewBox="0 0 1440 100" version="1.1" xmlns="http://www.w3.org/2000/svg"><defs><linearGradient id="sw-gradient-0" x1="0" x2="0" y1="1" y2="0"><stop stop-color="rgba(209, 0, 10, 1)" offset="0%"/><stop stop-color="rgba(209, 0, 10, 1)" offset="100%"/></linearGradient></defs><path style="transform:translate(0, 0px); opacity:1" fill="url(#sw-gradient-0)" d="M0,20L21.8,23.3C43.6,27,87,33,131,40C174.5,47,218,53,262,56.7C305.5,60,349,60,393,53.3C436.4,47,480,33,524,33.3C567.3,33,611,47,655,55C698.2,63,742,67,785,65C829.1,63,873,57,916,55C960,53,1004,57,1047,48.3C1090.9,40,1135,20,1178,18.3C1221.8,17,1265,33,1309,43.3C1352.7,53,1396,57,1440,51.7C1483.6,47,1527,33,1571,25C1614.5,17,1658,13,1702,10C1745.5,7,1789,3,1833,5C1876.4,7,1920,13,1964,23.3C2007.3,33,2051,47,2095,58.3C2138.2,70,2182,80,2225,76.7C2269.1,73,2313,57,2356,55C2400,53,2444,67,2487,65C2530.9,63,2575,47,2618,38.3C2661.8,30,2705,30,2749,26.7C2792.7,23,2836,17,2880,25C2923.6,33,2967,57,3011,60C3054.5,63,3098,47,3120,38.3L3141.8,30L3141.8,100L3120,100C3098.2,100,3055,100,3011,100C2967.3,100,2924,100,2880,100C2836.4,100,2793,100,2749,100C2705.5,100,2662,100,2618,100C2574.5,100,2531,100,2487,100C2443.6,100,2400,100,2356,100C2312.7,100,2269,100,2225,100C2181.8,100,2138,100,2095,100C2050.9,100,2007,100,1964,100C1920,100,1876,100,1833,100C1789.1,100,1745,100,1702,100C1658.2,100,1615,100,1571,100C1527.3,100,1484,100,1440,100C1396.4,100,1353,100,1309,100C1265.5,100,1222,100,1178,100C1134.5,100,1091,100,1047,100C1003.6,100,960,100,916,100C872.7,100,829,100,785,100C741.8,100,698,100,655,100C610.9,100,567,100,524,100C480,100,436,100,393,100C349.1,100,305,100,262,100C218.2,100,175,100,131,100C87.3,100,44,100,22,100L0,100Z"/></svg>